<?xml version="1.0" encoding="utf-8"?>
<!-- Generator: Adobe Illustrator 16.2.1, SVG Export Plug-In . SVG Version: 6.00 Build 0)  -->
<!DOCTYPE svg PUBLIC "-//W3C//DTD SVG 1.1//EN" "http://www.w3.org/Graphics/SVG/1.1/DTD/svg11.dtd">
<svg version="1.1" id="Layer_1" xmlns="http://www.w3.org/2000/svg" xmlns:xlink="http://www.w3.org/1999/xlink" x="0px" y="0px"
	 width="100px" height="200px" viewBox="0 0 100 200" enable-background="new 0 0 100 200" xml:space="preserve">
<path opacity="0.85" fill-rule="evenodd" clip-rule="evenodd" fill="#FFFFFF" d="M50.236,116.098
	c-18.194,0-32.943,14.749-32.943,32.943s14.749,32.943,32.943,32.943s32.943-14.749,32.943-32.943S68.43,116.098,50.236,116.098z
	 M50.233,178.589c-16.32,0-29.551-13.23-29.551-29.551c0-16.321,13.23-29.551,29.551-29.551c16.321,0,29.551,13.23,29.551,29.551
	C79.785,165.359,66.554,178.589,50.233,178.589z"/>
<path opacity="0.85" fill="#FFFFFF" d="M69.288,149.353l-29.345,16.942v-33.885L69.288,149.353z"/>
<g opacity="0.6">
	<g>
		<path fill-rule="evenodd" clip-rule="evenodd" fill="#FFFFFF" d="M50.236,16.098c-18.194,0-32.943,14.749-32.943,32.943
			s14.749,32.943,32.943,32.943s32.943-14.749,32.943-32.943S68.43,16.098,50.236,16.098z M50.233,78.589
			c-16.32,0-29.551-13.23-29.551-29.551c0-16.321,13.23-29.551,29.551-29.551c16.321,0,29.551,13.23,29.551,29.551
			C79.785,65.359,66.554,78.589,50.233,78.589z"/>
	</g>
</g>
<g opacity="0.6">
	<g>
		<path fill="#FFFFFF" d="M69.288,49.353L39.943,66.295V32.411L69.288,49.353z"/>
	</g>
</g>
</svg>
